<?xml version="1.0" encoding="utf-8"?>
<!-- Generator: Adobe Illustrator 16.0.0, SVG Export Plug-In . SVG Version: 6.00 Build 0)  -->
<!DOCTYPE svg PUBLIC "-//W3C//DTD SVG 1.1//EN" "http://www.w3.org/Graphics/SVG/1.1/DTD/svg11.dtd">
<svg version="1.1" id="Layer_1" xmlns="http://www.w3.org/2000/svg" xmlns:xlink="http://www.w3.org/1999/xlink" x="0px" y="0px"
	 width="612px" height="792px" viewBox="0 0 612 792" enable-background="new 0 0 612 792" xml:space="preserve">
<path stroke="#FFFFFF" stroke-miterlimit="10" d="M296.104,398.258l-28.298,24.194c1.03,0.958,2.417,1.547,3.948,1.547h68.494
	c1.523,0,2.907-0.59,3.934-1.547l-28.281-24.194L306,406.9L296.104,398.258z"/>
<path stroke="#FFFFFF" stroke-miterlimit="10" d="M340.247,367h-68.494c-1.523,0-2.907,0.593-3.937,1.556L306,401.2l38.192-32.655
	C343.165,367.587,341.781,367,340.247,367z"/>
<path stroke="#FFFFFF" stroke-miterlimit="10" d="M266,419.357l27.617-23.407L266,372.004V419.357z"/>
<path stroke="#FFFFFF" stroke-miterlimit="10" d="M346,419.357v-47.37l-27.617,23.963L346,419.357z"/>
</svg>
